<svg xmlns="http://www.w3.org/2000/svg" viewBox="0 0 3840 4320"><g opacity="0.28"><path d="M1543.92,1060a268.32,268.32,0,0,1,28.57-2.59c9.53-.45,19-.5,28.57-.37,19,.35,38,1.72,56.94,3.86,9.45,1.09,18.88,2.35,28.27,3.85s18.77,3.11,28.11,5q28,5.55,55.53,13.17t54.28,17.6c17.83,6.65,35.32,14.17,52.48,22.35,4.31,2,8.56,4.15,12.82,6.25l6.39,3.15,6.35,3.24c8.47,4.29,16.83,8.8,25.21,13.23l12.5,6.8c4.18,2.24,8.26,4.65,12.42,6.91l6.22,3.44,6.17,3.51c4.11,2.35,8.26,4.62,12.34,7,16.43,9.4,32.58,19.24,48.57,29.32s31.6,20.73,47.07,31.53c30.77,21.87,60.6,45,89.14,69.47a1249.35,1249.35,0,0,1,156.75,160.85l-3.86,3.48c-53-52.24-109.08-100.84-169-143.9A1350.7,1350.7,0,0,0,1957.47,1213c-4.09-2.06-8.24-4-12.36-6l-6.19-3-6.24-2.85c-8.31-3.83-16.74-7.39-25.13-11s-16.9-7-25.42-10.26l-6.37-2.52-6.4-2.43c-4.26-1.62-8.51-3.28-12.81-4.82-17.07-6.4-34.16-12.66-51.23-18.94l-51.24-18.86q-51.32-18.76-103.74-35.56c-35-11.17-70.41-21.79-106.63-31.65Z" fill="#fff"/><path d="M2306,1457.48l10.62-35.73,1.27.32,19.55,52.35q13.77,24.13,27.56,48.27l-45.28-32.24-50.14-24.67-.32-1.17Z" fill="#fff"/></g><g opacity="0.28"><path d="M2333.25,1926.83a266.89,266.89,0,0,1-15.94,23.86c-5.63,7.7-11.58,15.13-17.67,22.45-12.23,14.59-25.24,28.5-38.79,41.86-6.78,6.66-13.69,13.21-20.76,19.57s-14.22,12.64-21.53,18.74q-21.9,18.29-45.15,34.92c-15.48,11.06-31.42,21.49-47.8,31.15s-33.22,18.56-50.37,26.77c-4.28,2.08-8.61,4-12.92,6l-6.47,3-6.51,2.9c-8.66,3.89-17.42,7.56-26.14,11.3l-13.14,5.44c-4.36,1.85-8.81,3.51-13.18,5.32l-6.58,2.67-6.62,2.6c-4.4,1.72-8.78,3.52-13.21,5.19-17.64,6.87-35.45,13.24-53.33,19.34s-36,11.54-54.11,16.8c-36.35,10.17-73,18.88-110.06,25.65a1249.33,1249.33,0,0,1-223.62,20.82l-.29-5.19c73.92-8.36,147-21.45,218.14-41a1351.35,1351.35,0,0,0,207.08-74.76c4.17-1.89,8.28-3.9,12.42-5.84l6.19-3,6.15-3.07c8.2-4,16.27-8.37,24.36-12.62s16-8.76,24-13.31l6-3.38,5.91-3.44c3.94-2.3,7.9-4.57,11.8-6.94,15.71-9.25,31.32-18.61,46.94-27.94l46.87-28q46.86-28.11,92.87-58.33c30.68-20.2,61.2-41.08,91.63-63Z" fill="#fff"/><path d="M1545,2269.73l21.12,30.72-1.05.78-53-17.7-54.86-8.9,53.53-15,50.7-23.49,1.12.48Z" fill="#fff"/></g></svg>