<?xml version="1.0" encoding="utf-8"?>
<!-- Generator: Adobe Illustrator 26.5.0, SVG Export Plug-In . SVG Version: 6.00 Build 0)  -->
<svg version="1.1" id="Layer_1" xmlns="http://www.w3.org/2000/svg" xmlns:xlink="http://www.w3.org/1999/xlink" x="0px" y="0px"
	 viewBox="0 0 512 512" style="enable-background:new 0 0 512 512;" xml:space="preserve">
<style type="text/css">
	.st0{fill:#E7E4F9;}
</style>
<path class="st0" d="M207.8,20.7C114.4,39,39.1,114.4,20.8,207.8C-6.8,348.7,89.5,474,219.9,492.9c19,2.9,36.2-12.3,36.2-31.5l0-0.7
	c0-15.7-11.4-28.9-26.8-31.2C144.9,416.6,80,343.4,80,255.3c0-102.9,88.6-185.5,193.4-175.4C365,88.8,432,171.2,432,263.1v16.2
	c0,22.1-17.9,40-40,40s-40-18-40-40V159.2c0-8.8-7.2-16-16-16l-32,0c-7.3,0-13.2,5-15.1,11.7c-24.9-12.1-54.2-16.4-86.1-5.1
	c-38.8,13.7-68.1,48.9-73.7,89.6c-9.5,69,43.8,128,110.9,128c26.4,0,50.4-9.5,69.6-24.9c24,31.3,65.2,48.7,109.4,37.5
	c46.2-10.7,77-55.9,76.1-102.8v-20.9C495.1,107.1,361.2-9.3,207.8,20.7z M239.1,304.3c-26.5,0-48-21.6-48-48s21.5-48.1,48-48.1
	s48,21.6,48,48.1S266.5,304.3,239.1,304.3z"/>
</svg>
