<?xml version="1.0" encoding="utf-8"?>
<!-- Generator: Adobe Illustrator 26.5.0, SVG Export Plug-In . SVG Version: 6.00 Build 0)  -->
<svg version="1.1" id="Layer_1" xmlns="http://www.w3.org/2000/svg" xmlns:xlink="http://www.w3.org/1999/xlink" x="0px" y="0px"
	 viewBox="0 0 4988.2 2578.5" style="enable-background:new 0 0 4988.2 2578.5;" xml:space="preserve">
<style type="text/css">
	.st0{display:none;}
	.st1{display:inline;fill:#503B6B;}
	.st2{display:inline;}
	.st3{fill:#503B6B;}
	.st4{display:none;fill:#503B6B;}
	.st5{opacity:0.1;}
	.st6{enable-background:new    ;}
	.st7{clip-path:url(#SVGID_00000133511355050331154770000012389277575276027300_);enable-background:new    ;}
	.st8{fill:#3A294C;}
	.st9{fill:#39284B;}
	.st10{clip-path:url(#SVGID_00000052816820574993757770000002354463841618944677_);enable-background:new    ;}
	.st11{fill:#4C3866;}
	.st12{fill:#39294C;}
	.st13{fill:#4A3763;}
	.st14{clip-path:url(#SVGID_00000073715592223771171400000003020756303178073994_);enable-background:new    ;}
	.st15{fill:#483560;}
	.st16{fill:#4D3A68;}
	.st17{clip-path:url(#SVGID_00000160888194297505765320000012755822560893231237_);enable-background:new    ;}
	.st18{fill:#4C3966;}
	.st19{fill:#3E2D52;}
	.st20{display:none;opacity:0.45;}
	.st21{fill:#E7E4F9;}
	.st22{display:inline;fill:#7B7B7B;}
	.st23{fill:none;}
	.st24{display:none;fill:#8E8E8E;enable-background:new    ;}
	.st25{font-family:'MyriadPro-Bold';}
	.st26{font-size:230.9981px;}
	.st27{fill:#EEC8ED;}
</style>
<g id="Layer_7">
	<g id="Layer_4" class="st0">
		<path class="st1" d="M3227.8,1074c0,150.8,2.6,286.5,11,416.8l-2.5,0.7c-25.9-109.1-63.3-238.7-104.4-359.1l-181.5-529.7
			L2574,362.3V2204l313.5-200.2v-434.1c0-235.2-3.5-438.8-10.6-631.9l5.3-0.5c55.5,178.4,121.6,355.5,175,485.8l153.1,374.6
			l121.4-77.5V846.1l-103.9-66.4L3227.8,1074L3227.8,1074z"/>
		<path class="st1" d="M1971.2,1132.3c-41,120.4-78.4,250-104.4,359.1l-2.5-0.7c8.4-130.2,11-265.9,11-416.8V779.8l-103.9,66.4V1720
			l121.4,77.5l153.1-374.6c53.4-130.3,119.5-307.4,175-485.8l5.3,0.5c-6.1,166.2-9.6,340.2-10.4,535.4c-0.1,31.6-0.2,63.7-0.2,96.5
			v434.1l313.5,200.2V362.2l-376.4,240.4L1971.2,1132.3z"/>
		<g class="st2">
			<polygon class="st3" points="833.9,1226.1 556.8,1226.1 556.8,962.5 387.9,962.5 387.9,1648.6 556.8,1648.6 556.8,1361.5 
				833.9,1361.5 833.9,1648.6 1001.8,1648.6 1001.8,962.5 833.9,962.5 			"/>
			<path class="st3" d="M1253.5,962.5L1026,1648.6h174.5l53-176.1h213.1l57.4,176.1h181.1l-230.8-686.1H1253.5z M1277.7,1356.4
				l44.2-145.6c12.1-39.7,23.2-91.6,34.2-132.3h2.2c11,40.7,24.3,91.6,37.5,132.3l46.4,145.6H1277.7z"/>
			<path class="st3" d="M3580.9,987.3l-227.5,686.1h174.5l53-176.1H3794l57.4,176.1h181.1l-230.8-686.1L3580.9,987.3L3580.9,987.3z
				 M3605.2,1381.2l44.2-145.6c12.1-39.7,23.2-91.6,34.2-132.3h2.2c11,40.7,24.3,91.6,37.6,132.3l46.4,145.6H3605.2z"/>
			<polygon class="st3" points="4524.4,1250.9 4247.3,1250.9 4247.3,987.3 4078.3,987.3 4078.3,1673.3 4247.3,1673.3 4247.3,1386.3 
				4524.4,1386.3 4524.4,1673.3 4692.2,1673.3 4692.2,987.3 4524.4,987.3 			"/>
		</g>
	</g>
	<g id="Layer_5" class="st0">
		<g class="st2">
			<g>
				<polygon class="st3" points="4695.3,1877.5 4695.3,1828.7 4714,1828.7 4714,1819 4665,1819 4665,1828.7 4683.7,1828.7 
					4683.7,1877.5 				"/>
				<path class="st3" d="M4767.6,1819l-10.1,28.8c-1.3,4.3-2.6,9.2-4.1,14.7h-0.2c-1.5-6-2.6-10.4-3.9-14.8l-10.1-28.6h-17.4
					l-4.3,58.5h11.2l2.1-34.4c0.2-5.4,0.4-11,0.4-16.4h0.6c1.3,5.2,3,12.1,4.1,16.6l10.5,33.4h12l10.5-32.5
					c1.7-5.4,3.5-12.3,4.9-17.5h0.7c0.2,6.3,0.2,11.9,0.4,16.4l2.1,34.4h11.6l-4.5-58.5L4767.6,1819L4767.6,1819z"/>
			</g>
			<g>
				<polygon class="st3" points="4695.3,1877.5 4695.3,1828.7 4714,1828.7 4714,1819 4665,1819 4665,1828.7 4683.7,1828.7 
					4683.7,1877.5 				"/>
				<path class="st3" d="M4767.6,1819l-10.1,28.8c-1.3,4.3-2.6,9.2-4.1,14.7h-0.2c-1.5-6-2.6-10.4-3.9-14.8l-10.1-28.6h-17.4
					l-4.3,58.5h11.2l2.1-34.4c0.2-5.4,0.4-11,0.4-16.4h0.6c1.3,5.2,3,12.1,4.1,16.6l10.5,33.4h12l10.5-32.5
					c1.7-5.4,3.5-12.3,4.9-17.5h0.7c0.2,6.3,0.2,11.9,0.4,16.4l2.1,34.4h11.6l-4.5-58.5L4767.6,1819L4767.6,1819z"/>
			</g>
		</g>
		<polygon class="st1" points="3374,1964.1 3519.1,1964.1 3519.1,1874.8 3429.9,1874.8 3429.9,1908.3 3485.7,1908.3 3485.7,1930.6 
			3407.5,1930.6 3407.5,1852.5 3519.1,1852.5 3519.1,1819 3374,1819 		"/>
		<path class="st1" d="M3548.7,1964.1h33.5v-55.9h61.4c4.6,0,8.5,1.7,11.8,4.9c3.3,3.3,4.9,7.2,4.9,11.9v39.1h33.5V1925
			c0-11.1-3.3-21-9.9-29.9c6.6-7.4,9.9-16.1,9.9-25.9V1819h-145.1L3548.7,1964.1L3548.7,1964.1z M3582.2,1852.5h78.1v16.7
			c0,1.5-0.5,2.9-1.6,4c-1.1,1-2.5,1.5-4,1.5h-72.5V1852.5z"/>
		<path class="st1" d="M3723.3,1964.1h33.5v-55.9h78.1v55.9h33.5V1819h-145.1V1964.1z M3756.8,1852.5h78.1v22.3h-78.1V1852.5z"/>
		<path class="st1" d="M3898,1964.1h33.5v-55.9h111.6V1819H3898V1964.1z M3931.5,1852.5h78.1v22.3h-78.1V1852.5z"/>
		<polygon class="st1" points="4184.2,1874.8 4106.1,1874.8 4106.1,1819 4072.6,1819 4072.6,1964.1 4106.1,1964.1 4106.1,1908.3 
			4184.2,1908.3 4184.2,1964.1 4217.8,1964.1 4217.8,1819 4184.2,1819 		"/>
		<rect x="4247.3" y="1819" class="st1" width="33.5" height="145.1"/>
		<polygon class="st1" points="4310.3,1964.1 4455.4,1964.1 4455.4,1930.6 4343.8,1930.6 4343.8,1852.5 4455.4,1852.5 4455.4,1819 
			4310.3,1819 		"/>
		<polygon class="st1" points="4485,1908.3 4596.6,1908.3 4596.6,1930.6 4485,1930.6 4485,1964.1 4630.1,1964.1 4630.1,1874.8 
			4518.5,1874.8 4518.5,1852.5 4630.1,1852.5 4630.1,1819 4485,1819 		"/>
	</g>
	<g id="Layer_2_00000026123026323506833510000016763773229938551703_">
		<g id="Layer_1_00000178171898675474607130000011655582860241472443_">
			<rect class="st4" width="4988.2" height="2578.5"/>
			<g class="st5">
				
					<image style="overflow:visible;enable-background:new    ;" width="10004" height="4254" xlink:href="4B831B62.png"  transform="matrix(0.2397 0 0 0.2397 990.856 1221.265)">
				</image>
			</g>
			<g class="st5">
				
					<image style="overflow:visible;enable-background:new    ;" width="10004" height="4254" xlink:href="4B831B66.png"  transform="matrix(0.2397 0 0 0.2397 1669.9359 1221.265)">
				</image>
			</g>
			<g class="st0">
				<g class="st2">
					<g class="st6">
						<g class="st6">
							<g>
								<defs>
									<path id="SVGID_1_" d="M3223,1491.4h-32.9c-5.7-130.9-8.2-266.6-8.2-417.4h32.9C3214.8,1224.8,3217.3,1360.5,3223,1491.4z"
										/>
								</defs>
								<clipPath id="SVGID_00000048481669360052995940000017968532150427092657_">
									<use xlink:href="#SVGID_1_"  style="overflow:visible;"/>
								</clipPath>
								<g style="clip-path:url(#SVGID_00000048481669360052995940000017968532150427092657_);enable-background:new    ;">
									<path class="st8" d="M3223,1491.4h-32.9c-5.7-130.9-8.2-266.6-8.2-417.4h32.9C3214.8,1224.8,3217.3,1360.5,3223,1491.4"/>
								</g>
							</g>
						</g>
						<g>
							<rect x="3181.9" y="779.8" class="st9" width="32.9" height="294.2"/>
						</g>
						<g>
							<polygon class="st9" points="3197.8,1797.6 3164.9,1797.6 3015.7,1423 3048.6,1423 							"/>
						</g>
						<g class="st6">
							<g>
								<defs>
									<path id="SVGID_00000132798515690594529560000008284466914533533078_" d="M3048.6,1423h-32.9
										c-52.1-130.3-116.4-307.4-170.5-485.8h32.9C2932.2,1115.5,2996.6,1292.7,3048.6,1423z"/>
								</defs>
								<clipPath id="SVGID_00000146472988857559193760000012316220123627315901_">
									<use xlink:href="#SVGID_00000132798515690594529560000008284466914533533078_"  style="overflow:visible;"/>
								</clipPath>
								<g style="clip-path:url(#SVGID_00000146472988857559193760000012316220123627315901_);enable-background:new    ;">
									<path class="st8" d="M3048.6,1423h-32.9c-52.1-130.3-116.4-307.4-170.5-485.8h32.9
										C2932.2,1115.5,2996.6,1292.7,3048.6,1423"/>
								</g>
							</g>
						</g>
						<g>
							<rect x="2544.8" y="362.2" class="st9" width="32.9" height="1841.8"/>
						</g>
						<g>
							<path class="st11" d="M2577.7,362.2l366.8,240.4l176.9,529.7c40,120.4,76.4,250,101.7,359.1c-5.7-130.9-8.2-266.6-8.2-417.4
								V779.8l101.3,66.4V1720l-118.3,77.5L3048.6,1423c-52.1-130.3-116.4-307.4-170.5-485.8l-5.2,0.5
								c6.9,193.1,10.3,396.7,10.3,631.9v434.1L2577.7,2204V362.2z"/>
						</g>
					</g>
				</g>
			</g>
			<g class="st0">
				<g class="st2">
					<g class="st6">
						<g>
							<polygon class="st9" points="2218.4,937.7 2185.5,937.7 2180.3,937.2 2213.2,937.2 							"/>
						</g>
						<g>
							<polygon class="st12" points="2513.6,2204 2480.7,2204 2175.2,2003.7 2208.1,2003.7 							"/>
						</g>
						<g>
							<rect x="2175.2" y="1569.6" class="st13" width="32.9" height="434.1"/>
						</g>
						<g class="st6">
							<g>
								<defs>
									<path id="SVGID_00000019675381401413497560000009979541118684567481_" d="M2208.1,1569.6h-32.9c0-32.8,0.1-64.9,0.2-96.5
										c0.8-195.2,4.2-369.3,10.1-535.4h32.9c-6,166.2-9.3,340.2-10.1,535.4C2208.1,1504.7,2208.1,1536.9,2208.1,1569.6z"/>
								</defs>
								<clipPath id="SVGID_00000125595009331630873810000015803928677068984456_">
									<use xlink:href="#SVGID_00000019675381401413497560000009979541118684567481_"  style="overflow:visible;"/>
								</clipPath>
								<g style="clip-path:url(#SVGID_00000125595009331630873810000015803928677068984456_);enable-background:new    ;">
									<path class="st13" d="M2208.1,1569.6h-32.9c0-32.8,0.1-64.9,0.2-96.5c0.8-195.2,4.2-369.3,10.1-535.4h32.9
										c-6,166.2-9.3,340.2-10.1,535.4C2208.1,1504.7,2208.1,1536.9,2208.1,1569.6"/>
								</g>
							</g>
						</g>
						<g>
							<polygon class="st15" points="2146.8,602.6 2113.9,602.6 2480.7,362.2 2513.6,362.2 							"/>
						</g>
						<g>
							<polygon class="st16" points="1969.9,1132.3 1937,1132.3 2113.9,602.6 2146.8,602.6 							"/>
						</g>
						<g class="st6">
							<g>
								<defs>
									<path id="SVGID_00000020400280124708334630000005897553289839077297_" d="M1865.8,1490.7h-32.9
										c27.7-108.4,64.1-238,104.1-358.4h32.9C1929.9,1252.7,1893.5,1382.3,1865.8,1490.7z"/>
								</defs>
								<clipPath id="SVGID_00000176740185389498585460000008614640326143801502_">
									<use xlink:href="#SVGID_00000020400280124708334630000005897553289839077297_"  style="overflow:visible;"/>
								</clipPath>
								<g style="clip-path:url(#SVGID_00000176740185389498585460000008614640326143801502_);enable-background:new    ;">
									<path class="st18" d="M1865.8,1490.7h-32.9c27.7-108.4,64.1-238,104.1-358.4h32.9
										C1929.9,1252.7,1893.5,1382.3,1865.8,1490.7"/>
								</g>
							</g>
						</g>
						<g>
							<polygon class="st12" points="1893.5,1797.6 1860.6,1797.6 1742.3,1720 1775.2,1720 							"/>
						</g>
						<g>
							<rect x="1742.3" y="846.1" class="st13" width="32.9" height="873.9"/>
						</g>
						<g>
							<path class="st19" d="M2513.6,362.2V2204l-305.5-200.2v-434.1c0-32.8,0.1-64.9,0.2-96.5c0.8-195.2,4.2-369.3,10.1-535.4
								l-5.2-0.5c-54.1,178.4-118.5,355.5-170.5,485.8l-149.1,374.6l-118.3-77.5V846.1l101.3-66.4V1074
								c0,150.8-2.5,286.5-10.7,416.8c27.7-108.4,64.1-238,104.1-358.4l176.9-529.7L2513.6,362.2z"/>
						</g>
						<g>
							<polygon class="st15" points="1775.2,846.1 1742.3,846.1 1843.6,779.8 1876.5,779.8 							"/>
						</g>
					</g>
				</g>
			</g>
			<g class="st20">
				
					<image style="display:inline;overflow:visible;enable-background:new    ;" width="6804" height="3392" xlink:href="4B831B61.png"  transform="matrix(0.2396 0 0 0.2396 681.6493 470.065)">
				</image>
			</g>
			<g>
				<g>
					<path class="st21" d="M556.8,962.5v263.6H834V962.5h167.8v686.1H833.9v-287H556.8v287H387.9V962.5H556.8z"/>
				</g>
				<g>
					<path class="st21" d="M1253.5,1472.5l-53,176.1H1026l227.5-686.1h220.8l230.8,686.1H1524l-57.4-176.1H1253.5z M1442.3,1356.4
						l-46.4-145.6c-13.2-40.7-26.5-91.6-37.5-132.3h-2.2c-11,40.7-22.1,92.6-34.2,132.3l-44.2,145.6H1442.3z"/>
				</g>
				<g>
					<path class="st21" d="M3580.9,1497.3l-53,176.1h-174.5l227.5-686.1h220.8l230.8,686.1h-181.1l-57.4-176.1H3580.9z
						 M3769.7,1381.2l-46.4-145.6c-13.3-40.7-26.5-91.6-37.6-132.3h-2.2c-11,40.7-22.1,92.6-34.2,132.3l-44.2,145.6H3769.7z"/>
				</g>
				<g>
					<path class="st21" d="M4247.3,987.3v263.6h277.2V987.3h167.8v686.1h-167.8v-287h-277.2v287h-168.9V987.3H4247.3z"/>
				</g>
			</g>
			<g>
				<path class="st21" d="M2551.6,2204V362.2L2928,602.6l181.5,529.7c41,120.4,78.4,250,104.4,359.1l2.5-0.7
					c-8.4-130.2-11-265.9-11-416.8V779.8l103.9,66.4V1720l-121.4,77.5l-153-374.5c-53.4-130.3-119.5-307.4-175-485.8l-5.3,0.5
					c7.1,193.1,10.6,396.7,10.6,631.9v434.1L2551.6,2204z"/>
			</g>
			<g class="st0">
				<path class="st22" d="M2193.3,2003.7v-434.1c0-32.8,0.1-64.9,0.2-96.5c0.8-195.2,4.3-369.3,10.4-535.4l-5.3-0.5
					c-55.5,178.4-121.6,355.5-175,485.8l-153.1,374.6l-121.4-77.5v-874l103.9-66.4V1074c0,150.8-2.6,286.5-11,416.8l2.5,0.7
					c25.9-109.1,63.3-238.7,104.4-359.1l181.5-529.7l376.4-240.4V2204L2193.3,2003.7z"/>
			</g>
			<rect x="-1661.3" y="2381.4" class="st23" width="8425.7" height="4469.3"/>
			<text transform="matrix(1.0474 0 0 1 138.8315 2545.4141)" class="st24 st25 st26"> Graphic Design . Games . Augmented Reality</text>
			<g>
				<path class="st27" d="M2193.9,2004.2c-0.4-0.3-0.6-0.7-0.6-1.2v-433.3c0-32.8,0.1-64.9,0.2-96.5c0.8-194.7,4.3-368.3,10.4-534.1
					c0-0.7-0.5-1.4-1.3-1.4l-2.9-0.3c-0.7-0.1-1.3,0.3-1.5,1c-55.4,178-121.4,354.7-174.7,484.7l-152.4,373
					c-0.3,0.8-1.3,1.1-2.1,0.7l-119.3-76.2c-0.4-0.3-0.6-0.7-0.6-1.2V846.9c0-0.5,0.2-0.9,0.6-1.2l101.1-64.6
					c0.9-0.6,2.2,0.1,2.2,1.2V1074c0,150.4-2.5,285.7-10.9,415.6c0,0.7,0.4,1.3,1,1.4l0,0c0.8,0.2,1.5-0.3,1.7-1
					c25.9-108.8,63.2-237.8,104-357.7l181.4-529.2c0.1-0.3,0.3-0.6,0.6-0.7l373.9-238.8c0.9-0.6,2.2,0.1,2.2,1.2v1836.7
					c0,1.1-1.2,1.8-2.2,1.2L2193.9,2004.2z"/>
			</g>
		</g>
	</g>
	<g id="Layer_6">
		<g>
			<path class="st21" d="M3519.1,1819v33.5h-111.6v78.1h78.1v-22.4h-55.8v-33.5h89.3v89.4H3374V1819H3519.1z"/>
			<path class="st21" d="M3693.8,1869.2c0,9.9-3.3,18.5-9.9,25.9c6.6,8.9,9.9,18.9,9.9,29.9v39.1h-33.5V1925c0-4.6-1.7-8.5-4.9-11.9
				c-3.2-3.3-7.1-4.9-11.8-4.9h-61.4v55.9h-33.5V1819h145.1L3693.8,1869.2L3693.8,1869.2z M3654.7,1874.8c1.5,0,2.9-0.5,4-1.5
				c1.1-1.1,1.6-2.5,1.6-4v-16.7h-78.1v22.3h72.5V1874.8z"/>
			<path class="st21" d="M3868.4,1819v145.1H3835v-55.9h-78.1v55.9h-33.5V1819H3868.4z M3756.8,1874.8h78.1v-22.3h-78.1V1874.8z"/>
			<path class="st21" d="M4043.1,1819v89.2h-111.6v55.9H3898V1819H4043.1z M3931.5,1874.8h78.1v-22.3h-78.1V1874.8z"/>
			<path class="st21" d="M4217.8,1819v145.1h-33.5v-55.9h-78.1v55.9h-33.5V1819h33.5v55.7h78.1V1819H4217.8z"/>
			<path class="st21" d="M4247.3,1819h33.5v145.1h-33.5V1819z"/>
			<path class="st21" d="M4455.4,1819v33.5h-111.6v78.1h111.6v33.5h-145.1V1819H4455.4z"/>
			<path class="st21" d="M4630.1,1819v33.5h-111.6v22.3h111.6v89.4H4485v-33.5h111.6v-22.4H4485V1819H4630.1z"/>
			<path class="st21" d="M4714,1819v9.7h-18.7v48.8h-11.6v-48.8H4665v-9.7H4714z M4777.2,1877.5l-2.1-34.4
				c-0.2-4.5-0.2-10.1-0.4-16.4h-0.7c-1.5,5.2-3.2,12.1-4.9,17.5l-10.5,32.5h-12l-10.5-33.4c-1.1-4.5-2.8-11.4-4.1-16.6h-0.6
				c0,5.4-0.2,11-0.4,16.4l-2.1,34.4h-11.2l4.3-58.5h17.4l10.1,28.6c1.3,4.5,2.4,8.8,3.9,14.8h0.2c1.5-5.4,2.8-10.4,4.1-14.7
				l10.1-28.8h16.8l4.5,58.5L4777.2,1877.5L4777.2,1877.5z"/>
		</g>
	</g>
</g>
<g id="Layer_8" class="st0">
	<rect x="-823.2" y="-329.3" class="st1" width="6336" height="4248"/>
</g>
</svg>
