<?xml version="1.0" encoding="UTF-8"?>
<svg id="Layer_1" data-name="Layer 1" xmlns="http://www.w3.org/2000/svg" viewBox="0 0 280.56 83.22">
  <defs>
    <style>
      .cls-1, .cls-2 {
        fill: #dfe5ec;
      }

      .cls-3, .cls-2 {
        isolation: isolate;
      }

      .cls-2 {
        font-family: Ethnocentric-Regular, Ethnocentric;
        font-size: 12.05px;
      }
    </style>
  </defs>
  <g id="Layer_4" data-name="Layer 4">
    <path class="cls-1" d="M121.9,76.1l-23.26-38.55v32.48l-7.34-2.77V25.88c0-6.64,1.96-10.06,4.23-10.91,1.01-.38,2.05-.28,3.46,1.7l23.53,32.28.03-42.9L139.22,0l-.07,70.67c0,11.33-5.32,13.98-10.66,11.9-2.16-.84-4.15-2.28-6.59-6.47Z"/>
    <g>
      <path class="cls-1" d="M36.69,59.74h-9.31v-11.66H9.4v11.66H0v-30.23h9.4v10.71h17.98v-10.71h9.31v30.23Z"/>
      <path class="cls-1" d="M55.22,59.74l5.65-7.77h7.59c1.81,0,3.93,0,5.38.09-.81-1.08-2.08-2.94-3.07-4.38l-5.42-8-14.19,20.06h-11.07l19.38-27.34c1.27-1.76,3.12-3.39,6.05-3.39s4.65,1.49,5.96,3.39l18.89,27.34s-35.15,0-35.15,0Z"/>
    </g>
    <g>
      <path class="cls-1" d="M244.95,29.51h9.31v10.71h17.98v-10.71h9.4v30.23h-9.4v-11.66h-17.98v11.66h-9.31v-30.23Z"/>
      <path class="cls-1" d="M191.27,59.74l18.89-27.34c1.31-1.9,3.16-3.39,5.96-3.39s4.79,1.63,6.05,3.39l19.38,27.34h-11.07l-14.19-20.06-5.42,8c-.99,1.45-2.26,3.3-3.07,4.38,1.45-.09,3.57-.09,5.38-.09h7.59l5.65,7.77h-35.15,0Z"/>
    </g>
    <path class="cls-1" d="M153.13,82.56c-5.35,2.08-10.65-.56-10.66-11.9L142.41,0l16.67,6.05.03,42.9,23.53-32.28c1.42-1.97,2.45-2.07,3.46-1.7,2.27.85,4.23,4.27,4.23,10.91v41.37l-7.34,2.77v-32.48l-23.27,38.55c-2.44,4.18-4.43,5.63-6.59,6.47Z"/>
    <g class="cls-3">
      <text class="cls-2" transform="translate(192.96 71.95)"><tspan x="0" y="0">graphics</tspan></text>
    </g>
  </g>
</svg>