<?xml version="1.0" encoding="utf-8"?>
<!-- Generator: Adobe Illustrator 26.5.0, SVG Export Plug-In . SVG Version: 6.00 Build 0)  -->
<svg version="1.1" id="Layer_1" xmlns="http://www.w3.org/2000/svg" xmlns:xlink="http://www.w3.org/1999/xlink" x="0px" y="0px"
	 viewBox="0 0 384 512" style="enable-background:new 0 0 384 512;" xml:space="preserve">
<style type="text/css">
	.st0{fill:#E7E4F9;}
</style>
<path class="st0" d="M320,0H64C37.5,0,16,21.5,16,48v416c0,26.5,21.5,48,48,48h256c26.5,0,48-21.5,48-48V48C368,21.5,346.5,0,320,0z
	 M240,447.1c0,9.7-7.2,16.9-16,16.9h-64.9c-7.9,0-15.1-7.2-15.1-16s7.2-16,16-16h64C232.8,432,240,439.2,240,447.1z M304,384H80V64
	h224V384z"/>
</svg>
